<svg width="45" height="44" viewBox="0 0 45 44" fill="none" xmlns="http://www.w3.org/2000/svg">
<path d="M5.22997 34.8517L5.1933 34.8883C4.6983 33.8067 4.38663 32.5783 4.2583 31.2217C4.38663 32.56 4.73497 33.77 5.22997 34.8517Z" fill="#566370"/>
<path d="M17.0001 19.0299C19.4099 19.0299 21.3634 17.0764 21.3634 14.6666C21.3634 12.2568 19.4099 10.3032 17.0001 10.3032C14.5902 10.3032 12.6367 12.2568 12.6367 14.6666C12.6367 17.0764 14.5902 19.0299 17.0001 19.0299Z" fill="#566370"/>
<path d="M30.1817 3.66675H14.8184C8.14508 3.66675 4.16675 7.64508 4.16675 14.3184V29.6817C4.16675 31.6801 4.51508 33.4217 5.19341 34.8884C6.77008 38.3717 10.1434 40.3334 14.8184 40.3334H30.1817C36.8551 40.3334 40.8334 36.3551 40.8334 29.6817V25.4834V14.3184C40.8334 7.64508 36.8551 3.66675 30.1817 3.66675ZM37.8451 22.9167C36.4151 21.6884 34.1051 21.6884 32.6751 22.9167L25.0484 29.4617C23.6184 30.6901 21.3084 30.6901 19.8784 29.4617L19.2551 28.9484C17.9534 27.8117 15.8817 27.7017 14.4151 28.6917L7.55841 33.2934C7.15508 32.2667 6.91675 31.0751 6.91675 29.6817V14.3184C6.91675 9.14841 9.64841 6.41675 14.8184 6.41675H30.1817C35.3517 6.41675 38.0834 9.14841 38.0834 14.3184V23.1184L37.8451 22.9167Z" fill="#566370"/>
</svg>
