<svg width="17" height="16" viewBox="0 0 17 16" fill="none" xmlns="http://www.w3.org/2000/svg">
<path d="M9.45335 9.99996H3.43335C2.22002 9.99996 1.44669 8.69996 2.03335 7.63329L3.58669 4.80663L5.04002 2.15996C5.64669 1.05996 7.23335 1.05996 7.84002 2.15996L9.30002 4.80663L10 6.07996L10.8534 7.63329C11.44 8.69996 10.6667 9.99996 9.45335 9.99996Z" fill="#292D7D"/>
<path d="M15.6001 10.6667C15.6001 13.0601 13.6601 15.0001 11.2667 15.0001C9.23338 15.0001 7.53338 13.6067 7.06005 11.7134C7.01339 11.5134 7.16672 11.3334 7.37339 11.3334H9.88672C10.8134 11.3334 11.6534 10.8534 12.1267 10.0601C12.5934 9.26005 12.6134 8.30005 12.1601 7.48672L11.8267 6.87338C11.7001 6.64672 11.8801 6.37338 12.1334 6.42005C14.1067 6.82005 15.6001 8.56672 15.6001 10.6667Z" fill="#292D7D"/>
</svg>
