<svg width="17" height="16" viewBox="0 0 17 16" fill="none" xmlns="http://www.w3.org/2000/svg">
<path d="M2.22003 12.6733L2.2067 12.6866C2.0267 12.2933 1.91337 11.8466 1.8667 11.3533C1.91337 11.8399 2.04003 12.2799 2.22003 12.6733Z" fill="#292D7D"/>
<path d="M6.5 6.91992C7.37629 6.91992 8.08666 6.20954 8.08666 5.33325C8.08666 4.45696 7.37629 3.74658 6.5 3.74658C5.6237 3.74658 4.91333 4.45696 4.91333 5.33325C4.91333 6.20954 5.6237 6.91992 6.5 6.91992Z" fill="#292D7D"/>
<path d="M11.2933 1.33325H5.70659C3.27992 1.33325 1.83325 2.77992 1.83325 5.20659V10.7933C1.83325 11.5199 1.95992 12.1533 2.20659 12.6866C2.77992 13.9533 4.00659 14.6666 5.70659 14.6666H11.2933C13.7199 14.6666 15.1666 13.2199 15.1666 10.7933V9.26659V5.20659C15.1666 2.77992 13.7199 1.33325 11.2933 1.33325ZM14.0799 8.33325C13.5599 7.88659 12.7199 7.88659 12.1999 8.33325L9.42659 10.7133C8.90659 11.1599 8.06659 11.1599 7.54659 10.7133L7.31992 10.5266C6.84659 10.1133 6.09325 10.0733 5.55992 10.4333L3.06659 12.1066C2.91992 11.7333 2.83325 11.2999 2.83325 10.7933V5.20659C2.83325 3.32659 3.82659 2.33325 5.70659 2.33325H11.2933C13.1733 2.33325 14.1666 3.32659 14.1666 5.20659V8.40659L14.0799 8.33325Z" fill="#292D7D"/>
</svg>
