<svg width="44" height="44" viewBox="0 0 44 44" fill="none" xmlns="http://www.w3.org/2000/svg">
<rect width="44" height="44" rx="22" fill="#292D7D"/>
<path d="M23.4298 24.9999H14.3998C12.5798 24.9999 11.4198 23.0499 12.2998 21.4499L14.6298 17.2099L16.8098 13.2399C17.7198 11.5899 20.0998 11.5899 21.0098 13.2399L23.1998 17.2099L24.2498 19.1199L25.5298 21.4499C26.4098 23.0499 25.2498 24.9999 23.4298 24.9999Z" fill="white"/>
<path d="M32.6498 26C32.6498 29.59 29.7398 32.5 26.1498 32.5C23.0998 32.5 20.5498 30.41 19.8398 27.57C19.7698 27.27 19.9998 27 20.3098 27H24.0798C25.4698 27 26.7298 26.28 27.4398 25.09C28.1398 23.89 28.1698 22.45 27.4898 21.23L26.9898 20.31C26.7998 19.97 27.0698 19.56 27.4498 19.63C30.4098 20.23 32.6498 22.85 32.6498 26Z" fill="white"/>
</svg>
