<svg width="18" height="16" viewBox="0 0 18 16" fill="none" xmlns="http://www.w3.org/2000/svg">
<path fill-rule="evenodd" clip-rule="evenodd" d="M13.8812 15.0142C15.4437 15.0142 16.7087 13.7483 16.7087 12.1867V9.93667C15.6753 9.93667 14.842 9.10333 14.842 8.07083C14.842 7.0375 15.6753 6.205 16.7087 6.205L16.707 3.9525C16.707 2.39083 15.442 1.125 13.8803 1.125H4.12033C2.55866 1.125 1.29283 2.39083 1.29283 3.9525L1.29199 6.2775C2.32449 6.2775 3.15783 7.0375 3.15783 8.07083C3.15783 9.10333 2.32449 9.93667 1.29199 9.93667V12.1867C1.29199 13.7483 2.55699 15.0142 4.11866 15.0142H13.8812Z" stroke="#566370" stroke-width="1.5" stroke-linecap="round" stroke-linejoin="round"/>
</svg>
