<svg width="18" height="18" viewBox="0 0 18 18" fill="none" xmlns="http://www.w3.org/2000/svg">
<path d="M15.8706 15.2082C16.0046 14.9762 16.0047 14.6903 15.8707 14.4582C15.7367 14.2261 15.4891 14.0832 15.2212 14.0832H13.167C12.9239 14.0832 12.6907 13.9866 12.5188 13.8147C12.3469 13.6428 12.2503 13.4096 12.2503 13.1665V9.83317C12.2503 9.59006 12.3469 9.3569 12.5188 9.18499C12.6907 9.01308 12.9239 8.9165 13.167 8.9165H15.6153C15.8306 8.9165 16.0355 8.82399 16.1779 8.66251C16.3203 8.50103 16.3864 8.28616 16.3594 8.07257C16.1332 6.28045 15.2608 4.63246 13.9059 3.43784C12.5509 2.24322 10.8067 1.58407 9.00033 1.58407C7.19398 1.58407 5.4497 2.24322 4.09479 3.43784C2.73989 4.63246 1.86747 6.28045 1.64123 8.07257C1.61427 8.28616 1.68039 8.50103 1.82276 8.66251C1.96514 8.82399 2.17004 8.9165 2.38533 8.9165H4.83366C5.07677 8.9165 5.30993 9.01308 5.48184 9.18499C5.65375 9.3569 5.75033 9.59006 5.75033 9.83317V13.1665C5.75033 13.4096 5.65375 13.6428 5.48184 13.8147C5.30993 13.9866 5.07677 14.0832 4.83366 14.0832H2.33366C2.09054 14.0832 1.85739 13.9866 1.68548 13.8147C1.51357 13.6428 1.41699 13.4096 1.41699 13.1665V8.99984C1.41699 4.81155 4.81204 1.4165 9.00033 1.4165C13.1886 1.4165 16.5837 4.81155 16.5837 8.99984V13.1679C16.5837 13.168 16.5837 13.1681 16.5837 13.1682C16.5833 14.1368 16.2522 15.0763 15.6451 15.8311C15.1792 16.4104 14.5722 16.8543 13.8874 17.1235C13.8872 17.1229 13.887 17.1223 13.8868 17.1218C13.8841 17.1137 13.8758 17.0861 13.9083 17.0262C13.944 16.9604 14.0142 16.89 14.1037 16.8469C14.2957 16.7546 14.4807 16.6471 14.6568 16.5252C15.1539 16.1814 15.5684 15.7316 15.8706 15.2082Z" stroke="#566370" stroke-width="1.5" stroke-linejoin="round"/>
</svg>
