<svg width="19" height="18" viewBox="0 0 19 18" fill="none" xmlns="http://www.w3.org/2000/svg">
<path d="M3.1909 15.8106L3.19126 15.8109C4.02254 16.6397 5.12284 17.1439 6.29336 17.2323C7.46388 17.3208 8.62743 16.9876 9.57379 16.2931C10.5201 15.5986 11.1869 14.5885 11.4536 13.4454C11.6544 12.5847 11.6184 11.6914 11.3574 10.8579C11.2874 10.6345 11.349 10.4798 11.4109 10.4179L12.6774 9.15142C12.775 9.05379 12.9333 9.05379 13.0309 9.15142L13.3841 9.50461C14.0676 10.1881 15.1758 10.188 15.8591 9.50443L17.391 7.97218C18.0742 7.28873 18.0741 6.18083 17.3908 5.49748L16.9195 5.02615C16.887 4.99366 16.887 4.94098 16.9195 4.90848C17.5377 4.2902 17.5377 3.28777 16.9195 2.66949L16.4482 2.19826C15.7648 1.51484 14.6568 1.51484 13.9734 2.19826L8.58308 7.58854C8.52109 7.65054 8.36592 7.71223 8.14206 7.6417C7.30836 7.37907 6.41425 7.34186 5.55261 7.54194C4.40775 7.80779 3.39599 8.47496 2.70069 9.42256C2.00538 10.3702 1.67254 11.5355 1.76247 12.7074C1.8524 13.8793 2.35915 14.9802 3.1909 15.8106ZM7.52936 12.6745C7.48132 12.7863 7.41149 12.8875 7.32394 12.972C7.15105 13.139 6.9195 13.2314 6.67915 13.2293C6.4388 13.2272 6.20889 13.1308 6.03894 12.9608C5.86898 12.7909 5.77257 12.561 5.77048 12.3206C5.7684 12.0803 5.86079 11.8487 6.02777 11.6759C6.11233 11.5883 6.21348 11.5185 6.32531 11.4704C6.43715 11.4224 6.55744 11.3971 6.67915 11.396C6.80086 11.395 6.92157 11.4182 7.03423 11.4643C7.14688 11.5104 7.24923 11.5784 7.3353 11.6645C7.42137 11.7506 7.48943 11.8529 7.53552 11.9656C7.58161 12.0782 7.60481 12.1989 7.60375 12.3206C7.60269 12.4423 7.5774 12.5626 7.52936 12.6745Z" stroke="#566370" stroke-width="1.5"/>
</svg>
