<svg width="16" height="16" viewBox="0 0 16 16" fill="none" xmlns="http://www.w3.org/2000/svg">
<path d="M8.95323 9.99996H2.93323C1.7199 9.99996 0.946565 8.69996 1.53323 7.63329L3.08656 4.80663L4.5399 2.15996C5.14656 1.05996 6.73323 1.05996 7.3399 2.15996L8.7999 4.80663L9.4999 6.07996L10.3532 7.63329C10.9399 8.69996 10.1666 9.99996 8.95323 9.99996Z" fill="#566370"/>
<path d="M15.1002 10.6665C15.1002 13.0598 13.1602 14.9998 10.7668 14.9998C8.73351 14.9998 7.03351 13.6065 6.56017 11.7131C6.51351 11.5131 6.66684 11.3331 6.87351 11.3331H9.38684C10.3135 11.3331 11.1535 10.8531 11.6268 10.0598C12.0935 9.25981 12.1135 8.29981 11.6602 7.48647L11.3268 6.87314C11.2002 6.64647 11.3802 6.37314 11.6335 6.41981C13.6068 6.81981 15.1002 8.56647 15.1002 10.6665Z" fill="#566370"/>
</svg>
