<svg width="20" height="21" viewBox="0 0 20 21" fill="none" xmlns="http://www.w3.org/2000/svg">
<path d="M19.3311 11.0123C19.3404 10.2956 18.9522 9.63689 18.3217 9.29115L3.62987 1.21901C2.97181 0.847093 2.19609 0.892785 1.57601 1.31621C0.944557 1.74676 0.621352 2.7717 0.797872 3.51197L2.16942 9.25824C2.31022 9.84747 2.83758 10.2624 3.44429 10.2598L11.6203 10.2344C12.039 10.226 12.3785 10.5656 12.3701 10.9842C12.3688 11.3958 12.0343 11.7304 11.6156 11.7388L3.43184 11.7578C2.82513 11.7589 2.29519 12.1757 2.15074 12.7658L0.730684 18.5349C0.558267 19.2167 0.754842 19.8973 1.23587 20.3783C1.29246 20.4349 1.35613 20.4986 1.41984 20.548C2.04279 21.0286 2.85863 21.0899 3.55518 20.7188L18.2969 12.7256C18.9295 12.3902 19.3218 11.729 19.3311 11.0123" fill="#292D7D"/>
</svg>
