<svg width="14" height="15" viewBox="0 0 14 15" fill="none" xmlns="http://www.w3.org/2000/svg">
<path d="M9.79301 0.833496H4.20634C1.77967 0.833496 0.333008 2.28016 0.333008 4.70683V10.2935C0.333008 11.0202 0.459674 11.6535 0.706341 12.1868C1.27967 13.4535 2.50634 14.1668 4.20634 14.1668H9.79301C12.2197 14.1668 13.6663 12.7202 13.6663 10.2935V8.76683V4.70683C13.6663 2.28016 12.2197 0.833496 9.79301 0.833496ZM12.5797 7.8335C12.0597 7.38683 11.2197 7.38683 10.6997 7.8335L7.92634 10.2135C7.40634 10.6602 6.56634 10.6602 6.04634 10.2135L5.81967 10.0268C5.34634 9.6135 4.59301 9.5735 4.05967 9.9335L1.56634 11.6068C1.41967 11.2335 1.33301 10.8002 1.33301 10.2935V4.70683C1.33301 2.82683 2.32634 1.8335 4.20634 1.8335H9.79301C11.673 1.8335 12.6663 2.82683 12.6663 4.70683V7.90683L12.5797 7.8335Z" fill="#292D7D"/>
</svg>
