<svg width="18" height="18" viewBox="0 0 18 18" fill="none" xmlns="http://www.w3.org/2000/svg">
<path d="M15.6999 4.68324L10.8999 1.32491C9.59154 0.408241 7.5832 0.458241 6.32487 1.43324L2.14987 4.69157C1.31654 5.34157 0.658203 6.67491 0.658203 7.72491V13.4749C0.658203 15.5999 2.3832 17.3332 4.5082 17.3332H13.4915C15.6165 17.3332 17.3415 15.6082 17.3415 13.4832V7.83324C17.3415 6.70824 16.6165 5.32491 15.6999 4.68324ZM9.62487 13.9999C9.62487 14.3416 9.34154 14.6249 8.99987 14.6249C8.6582 14.6249 8.37487 14.3416 8.37487 13.9999V11.4999C8.37487 11.1582 8.6582 10.8749 8.99987 10.8749C9.34154 10.8749 9.62487 11.1582 9.62487 11.4999V13.9999Z" fill="#292D7D"/>
</svg>
