<svg width="20" height="20" viewBox="0 0 20 20" fill="none" xmlns="http://www.w3.org/2000/svg">
<path d="M12.7001 18.5583H12.5918C8.89176 18.5583 7.10843 17.1 6.80009 13.8333C6.76676 13.4917 7.01676 13.1833 7.36676 13.15C7.70843 13.1167 8.01676 13.375 8.05009 13.7167C8.29176 16.3333 9.52509 17.3083 12.6001 17.3083H12.7084C16.1001 17.3083 17.3001 16.1083 17.3001 12.7167V7.28332C17.3001 3.89165 16.1001 2.69165 12.7084 2.69165H12.6001C9.50843 2.69165 8.27509 3.68332 8.05009 6.34998C8.00843 6.69165 7.72509 6.94998 7.36676 6.91665C7.01676 6.89165 6.76676 6.58332 6.79176 6.24165C7.07509 2.92498 8.86676 1.44165 12.5918 1.44165H12.7001C16.7918 1.44165 18.5418 3.19165 18.5418 7.28332V12.7167C18.5418 16.8083 16.7918 18.5583 12.7001 18.5583Z" fill="#566370"/>
<path d="M12.4003 10.625H1.66699C1.32533 10.625 1.04199 10.3417 1.04199 10C1.04199 9.65833 1.32533 9.375 1.66699 9.375H12.4003C12.742 9.375 13.0253 9.65833 13.0253 10C13.0253 10.3417 12.7503 10.625 12.4003 10.625Z" fill="#566370"/>
<path d="M10.5419 13.4167C10.3835 13.4167 10.2252 13.3584 10.1002 13.2334C9.85853 12.9917 9.85853 12.5917 10.1002 12.35L12.4502 10L10.1002 7.65003C9.85853 7.40837 9.85853 7.00837 10.1002 6.7667C10.3419 6.52503 10.7419 6.52503 10.9835 6.7667L13.7752 9.55837C14.0169 9.80003 14.0169 10.2 13.7752 10.4417L10.9835 13.2334C10.8585 13.3584 10.7002 13.4167 10.5419 13.4167Z" fill="#566370"/>
</svg>
