<svg width="20" height="21" viewBox="0 0 20 21" fill="none" xmlns="http://www.w3.org/2000/svg">
<path d="M19.3314 11.0123C19.3407 10.2956 18.9525 9.63689 18.322 9.29115L3.63011 1.21901C2.97206 0.847093 2.19633 0.892785 1.57625 1.31621C0.944801 1.74676 0.621596 2.7717 0.798116 3.51197L2.16967 9.25824C2.31047 9.84747 2.83783 10.2624 3.44453 10.2598L11.6205 10.2344C12.0392 10.226 12.3788 10.5656 12.3704 10.9842C12.3691 11.3958 12.0345 11.7304 11.6159 11.7388L3.43208 11.7578C2.82538 11.7589 2.29544 12.1757 2.15098 12.7658L0.730929 18.5349C0.558512 19.2167 0.755086 19.8973 1.23612 20.3783C1.29271 20.4349 1.35637 20.4986 1.42008 20.548C2.04303 21.0286 2.85887 21.0899 3.55542 20.7188L18.2971 12.7256C18.9297 12.3902 19.322 11.729 19.3314 11.0123Z" fill="#292D7D"/>
</svg>
